<svg width="76" height="75" viewBox="0 0 76 75" fill="none" xmlns="http://www.w3.org/2000/svg">
<g clip-path="url(#clip0_616_116)">
<path d="M75.3458 37.5C75.3458 16.7893 58.4791 0 37.6729 0C16.8667 0 0 16.7893 0 37.5C0 58.2107 16.8667 75 37.6729 75C58.4791 75 75.3458 58.2107 75.3458 37.5Z" fill="#61CAFF"/>
<path d="M31.1889 37.954C31.1889 42.196 31.1889 46.4379 31.1889 50.6761C31.1889 52.4881 30.2402 53.4418 28.4455 53.4456C27.4209 53.4456 26.3963 53.4532 25.3718 53.4456C23.888 53.4303 22.8787 52.4195 22.8749 50.924C22.8711 42.2609 22.8711 33.5977 22.8749 24.9306C22.8749 23.4314 23.888 22.4204 25.368 22.409C26.4533 22.4014 27.5385 22.4014 28.6238 22.409C30.1795 22.4167 31.1814 23.4199 31.1851 24.9915C31.1927 29.3099 31.1889 33.632 31.1889 37.954Z" fill="white"/>
<path d="M53.7517 37.9157C53.7517 42.1576 53.7517 46.3997 53.7517 50.6378C53.7517 52.5032 52.8258 53.4417 50.9929 53.4417C49.9683 53.4417 48.9438 53.4493 47.9193 53.4378C46.4735 53.4225 45.4452 52.4078 45.4452 50.9545C45.4375 42.2721 45.4375 33.586 45.4452 24.9038C45.4452 23.416 46.4773 22.4165 47.9686 22.4051C49.0539 22.3975 50.1391 22.3975 51.2244 22.4051C52.7498 22.4165 53.7554 23.4199 53.7554 24.9494C53.7554 29.2715 53.7517 33.5936 53.7517 37.9157Z" fill="white"/>
<path d="M34.1638 37.9239C34.1638 33.7049 34.1638 29.482 34.1638 25.2629C34.1638 23.2984 35.0518 22.4057 36.987 22.4018C37.9697 22.4018 38.9564 22.3942 39.9392 22.4018C41.4418 22.4132 42.4209 23.3784 42.4588 24.8967C42.474 25.4231 42.4626 25.9457 42.4626 26.4721C42.4626 34.5479 42.4664 42.6275 42.4626 50.7032C42.4626 52.5191 41.5254 53.4423 39.7 53.4423C39.1384 53.4423 38.5768 53.4423 38.0115 53.4423C37.5485 53.4423 37.0857 53.4499 36.6265 53.4423C35.1959 53.4193 34.2131 52.4542 34.1713 51.0084C34.1448 50.1196 34.1638 49.2307 34.1638 48.342C34.1638 44.8706 34.1638 41.3953 34.1638 37.9239ZM36.0952 37.9239C36.0952 42.0857 36.0952 46.2438 36.0952 50.4057C36.0952 51.5004 36.0952 51.5004 37.2108 51.5004C37.9735 51.5004 38.7363 51.5004 39.5028 51.5004C40.5008 51.5004 40.5235 51.4777 40.5235 50.4896C40.5235 42.1086 40.5235 33.7278 40.5235 25.3468C40.5235 25.2247 40.5198 25.1027 40.5235 24.9845C40.5349 24.5228 40.3148 24.3321 39.8595 24.3397C38.9146 24.355 37.9697 24.3435 37.0288 24.3435C36.1521 24.3435 36.0991 24.397 36.0991 25.2591C36.0952 29.4857 36.0952 33.7049 36.0952 37.9239Z" fill="white"/>
</g>
<defs>
<clipPath id="clip0_616_116">
<rect width="75.3458" height="75" fill="white"/>
</clipPath>
</defs>
</svg>
