<svg width="76" height="75" viewBox="0 0 76 75" fill="none" xmlns="http://www.w3.org/2000/svg">
<g clip-path="url(#clip0_616_108)">
<path d="M75.3458 37.5C75.3458 16.7893 58.4791 0 37.6729 0C16.8667 0 0 16.7893 0 37.5C0 58.2107 16.8667 75 37.6729 75C58.4791 75 75.3458 58.2107 75.3458 37.5Z" fill="#FA4C9A"/>
<path d="M21.8838 31.3203C32.0572 31.3203 42.1356 31.3203 52.2711 31.3203C52.2711 31.5416 52.2711 31.7323 52.2711 31.9268C52.2711 37.8892 52.2711 43.8517 52.2711 49.8141C52.2711 51.8092 51.1858 52.8925 49.1823 52.8925C41.0959 52.8925 33.0096 52.8925 24.9233 52.8925C22.9766 52.8925 21.8838 51.7939 21.8838 49.8255C21.8838 43.8631 21.8838 37.9007 21.8838 31.9382C21.8838 31.7438 21.8838 31.5492 21.8838 31.3203ZM37.0774 41.1966C39.9424 41.1966 42.8111 41.1966 45.6761 41.1966C46.564 41.1966 46.86 40.9104 46.8637 40.0331C46.8714 38.4232 46.8714 36.8135 46.8637 35.2036C46.86 34.3263 46.564 34.0402 45.6723 34.0402C39.9386 34.0402 34.2087 34.0402 28.475 34.0402C27.5871 34.0402 27.2911 34.3263 27.2873 35.2036C27.2797 36.8135 27.2797 38.4232 27.2873 40.0331C27.2911 40.9104 27.5871 41.1966 28.4788 41.1966C31.3475 41.1966 34.2125 41.1966 37.0774 41.1966ZM32.6112 50.1459C34.0341 50.1459 35.4571 50.1498 36.8801 50.1459C37.6428 50.1421 37.9577 49.8331 37.9654 49.0588C37.9767 47.4107 37.9767 45.7628 37.9654 44.1149C37.9616 43.3023 37.6505 42.9934 36.8536 42.9934C34.0266 42.9895 31.2034 42.9895 28.3764 42.9934C27.6137 42.9934 27.2986 43.3061 27.2911 44.0805C27.2797 45.7285 27.2797 47.3764 27.2911 49.0243C27.2949 49.856 27.606 50.1459 28.4598 50.1459C29.8449 50.1459 31.2261 50.1459 32.6112 50.1459ZM43.3385 42.9895C42.4885 42.9895 41.6385 42.9818 40.7924 42.9934C40.098 43.001 39.7641 43.3099 39.7603 44.0081C39.7451 45.717 39.7451 47.4223 39.7603 49.1311C39.7678 49.8254 40.1017 50.1421 40.7924 50.1459C42.4695 50.1535 44.1506 50.1535 45.8279 50.1459C46.5222 50.1421 46.8562 49.8293 46.86 49.1311C46.8752 47.4223 46.8752 45.717 46.86 44.0081C46.8523 43.3099 46.5222 43.001 45.8279 42.9934C44.9968 42.9818 44.1696 42.9895 43.3385 42.9895Z" fill="white"/>
<path d="M52.2011 29.4924C42.1112 29.4924 32.0479 29.4924 21.9315 29.4924C21.9163 29.3399 21.8859 29.191 21.8859 29.0423C21.8821 27.7301 21.8746 26.4178 21.8859 25.1055C21.9011 23.5034 23.0319 22.3474 24.6142 22.3474C32.9207 22.3399 41.2271 22.3399 49.5335 22.3474C51.1234 22.3474 52.2543 23.4995 52.2656 25.1017C52.277 26.5131 52.2618 27.9246 52.258 29.336C52.2618 29.3703 52.2353 29.4046 52.2011 29.4924ZM29.0501 25.9448C29.0616 25.4603 28.7048 25.0712 28.2268 25.0445C27.7221 25.0178 27.3121 25.3992 27.3008 25.9028C27.2894 26.3873 27.6499 26.7763 28.1242 26.8031C28.6289 26.8335 29.0388 26.4521 29.0501 25.9448ZM31.7557 26.8031C32.2604 26.7916 32.636 26.3796 32.6133 25.876C32.5905 25.3955 32.1997 25.0369 31.7178 25.0445C31.2359 25.0559 30.8678 25.4298 30.8602 25.9142C30.8526 26.4216 31.2511 26.8145 31.7557 26.8031ZM36.1727 25.8989C36.1575 25.4145 35.7819 25.0483 35.2999 25.0445C34.7952 25.0445 34.4082 25.4451 34.4234 25.9524C34.4385 26.4331 34.8142 26.8031 35.2962 26.8069C35.7969 26.8069 36.184 26.4063 36.1727 25.8989Z" fill="white"/>
<path d="M45.0569 35.8477C39.7255 35.8477 34.432 35.8477 29.1006 35.8477C29.1006 37.034 29.1006 38.1977 29.1006 39.3839C34.432 39.3839 39.7255 39.3839 45.0569 39.3839C45.0569 38.1977 45.0569 37.034 45.0569 35.8477Z" fill="white"/>
<path d="M45.0569 35.8477C45.0569 37.034 45.0569 38.1977 45.0569 39.3839C39.7255 39.3839 34.432 39.3839 29.1006 39.3839C29.1006 38.1977 29.1006 37.034 29.1006 35.8477C34.4282 35.8477 39.7255 35.8477 45.0569 35.8477Z" fill="white"/>
<path d="M29.1084 44.7939C31.4762 44.7939 33.7872 44.7939 36.1436 44.7939C36.1436 45.9727 36.1436 47.1323 36.1436 48.3263C33.8024 48.3263 31.4801 48.3263 29.1084 48.3263C29.1084 47.1628 29.1084 46.0031 29.1084 44.7939Z" fill="white"/>
<path d="M41.5596 48.3182C41.5596 47.1471 41.5596 46.0028 41.5596 44.8164C42.7168 44.8164 43.8515 44.8164 45.0429 44.8164C45.0429 45.9607 45.0429 47.1204 45.0429 48.3182C43.9046 48.3182 42.77 48.3182 41.5596 48.3182Z" fill="white"/>
</g>
<defs>
<clipPath id="clip0_616_108">
<rect width="75.3458" height="75" fill="white"/>
</clipPath>
</defs>
</svg>
