<svg width="77" height="76" viewBox="0 0 77 76" fill="none" xmlns="http://www.w3.org/2000/svg">
<path d="M0 38C0 17.0132 17.1884 0 38.1752 0V0C59.1621 0 76.3505 17.0132 76.3505 38V38C76.3505 58.9868 59.1621 76 38.1752 76V76C17.1884 76 0 58.9868 0 38V38Z" fill="#6666FF"/>
<path d="M38.2522 58.2669C41.3394 58.2669 43.9891 57.6614 46.2255 56.4022C48.4376 55.1429 50.1149 53.375 51.2331 51.0987C52.3513 48.8223 52.9347 46.1584 52.9347 43.0828V22.5469H44.5725V42.5501C44.5725 45.0202 43.9648 46.9576 42.7979 48.3621C41.6311 49.7909 40.0997 50.4932 38.2522 50.4932C37.2312 50.4932 36.3318 50.2995 35.5539 49.8636C34.7518 49.4519 34.0954 48.8707 33.6093 48.1442C33.0988 47.4177 32.7098 46.5943 32.4424 45.6256C32.175 44.6812 32.0535 43.6641 32.0535 42.5501V22.5469H23.667V43.0828C23.667 45.5045 24.0073 47.6598 24.7123 49.573C25.3929 51.5103 26.3896 53.1087 27.6779 54.3679C28.942 55.6272 30.4734 56.5959 32.2723 57.274C34.0711 57.9521 36.0644 58.2669 38.2522 58.2669Z" fill="white"/>
</svg>
