<svg width="76" height="75" viewBox="0 0 76 75" fill="none" xmlns="http://www.w3.org/2000/svg">
<g clip-path="url(#clip0_616_121)">
<path d="M75.3458 37.5C75.3458 16.7893 58.4791 0 37.6729 0C16.8667 0 0 16.7893 0 37.5C0 58.2107 16.8667 75 37.6729 75C58.4791 75 75.3458 58.2107 75.3458 37.5Z" fill="#FA4C9A"/>
<path d="M35.6837 28.0238C35.6723 31.8843 32.6025 34.9551 28.7584 34.9474C24.8918 34.9398 21.8106 31.8156 21.8371 27.9245C21.8636 24.1061 24.9904 21.0123 28.8154 21.0313C32.6365 21.0466 35.6988 24.1633 35.6837 28.0238Z" fill="white"/>
<path d="M32.2344 47.1045C32.2497 44.2243 34.6137 41.8974 37.4939 41.9241C40.3246 41.9507 42.6318 44.2968 42.628 47.1502C42.6241 50.0379 40.2829 52.3841 37.4065 52.3725C34.5416 52.3649 32.2192 49.9999 32.2344 47.1045Z" fill="white"/>
<path d="M49.5573 28.0117C51.4736 28.0117 53.0141 29.5414 53.0255 31.4527C53.037 33.402 51.4736 34.9584 49.5231 34.9431C47.6182 34.9278 46.0739 33.3638 46.089 31.4603C46.1004 29.5453 47.6449 28.0117 49.5573 28.0117Z" fill="white"/>
<path d="M51.273 43.6329C51.2881 44.6057 50.5861 45.3533 49.6299 45.3877C48.6471 45.4221 47.8427 44.6705 47.8275 43.6977C47.8085 42.7326 48.6016 41.9239 49.5653 41.9277C50.5064 41.9315 51.2578 42.683 51.273 43.6329Z" fill="white"/>
<path d="M44.3662 24.4728C44.3889 25.3998 43.6377 26.2046 42.708 26.2505C41.7479 26.2961 40.9168 25.5218 40.8903 24.5528C40.8637 23.6259 41.6151 22.8248 42.5485 22.7905C43.5313 22.7523 44.3434 23.5038 44.3662 24.4728Z" fill="white"/>
<path d="M27.0682 38.4651C28.0055 38.4803 28.772 39.247 28.7757 40.1778C28.7796 41.1353 27.9637 41.9441 27.0075 41.9251C26.0816 41.9098 25.3075 41.1277 25.2999 40.1969C25.2885 39.2356 26.093 38.4498 27.0682 38.4651Z" fill="white"/>
</g>
<defs>
<clipPath id="clip0_616_121">
<rect width="75.3458" height="75" fill="white"/>
</clipPath>
</defs>
</svg>
