<svg width="134" height="41" viewBox="0 0 134 41" fill="none" xmlns="http://www.w3.org/2000/svg">
<path d="M27.9375 23.2932C27.2083 21.5743 26.096 20.0447 24.6855 18.8212C25.6563 17.6912 26.3698 16.3636 26.7764 14.9305C27.158 13.3529 27.3335 11.7326 27.2987 10.1099C27.2987 6.85719 26.2533 4.3604 23.9303 2.61401C21.6651 0.871867 18.4126 0.000531626 14.1729 0H0.0582115L0 22.0699C1.85883 22.0117 13.6857 22.0285 17.1697 21.9567C19.2845 21.9128 23.1799 23.7374 23.1728 28.8067C23.1728 31.3043 22.4758 33.1623 21.0237 34.4406C19.6298 35.6017 17.4225 36.2412 14.4616 36.2412H5.57726V32.022H15.7973C16.5316 32.022 17.2358 31.7303 17.7551 31.2111C18.2743 30.6918 18.566 29.9876 18.566 29.2533C18.566 28.519 18.2743 27.8147 17.7551 27.2955C17.2358 26.7763 16.5316 26.4846 15.7973 26.4846H0.0598177V40.8297H14.6952C19.2837 40.8297 22.8291 39.8425 25.2653 37.8672C27.7628 35.8346 28.9821 32.9885 28.9821 29.388C29.0569 27.3062 28.7012 25.2313 27.9375 23.2932ZM19.7486 15.3364C18.4727 16.3236 16.4384 16.8459 13.7678 16.8459H5.57726V4.53344H13.7662C16.4376 4.53344 18.4711 4.99835 19.747 6.04379C21.1409 7.08923 21.7797 8.5956 21.7797 10.6897C21.7797 12.7838 21.1417 14.2909 19.7478 15.3364H19.7486ZM17.8826 10.6897C17.8827 11.0297 17.8158 11.3664 17.6857 11.6805C17.5557 11.9946 17.3651 12.2801 17.1247 12.5205C16.8843 12.761 16.5989 12.9517 16.2848 13.0819C15.9707 13.212 15.6341 13.279 15.2941 13.279H9.31331V8.10199H15.2941C15.9805 8.1022 16.6387 8.37501 17.1239 8.86042C17.6092 9.34583 17.8818 10.0041 17.8818 10.6905L17.8826 10.6897Z" fill="#FF5E14"/>
<path d="M36.7324 30.1602H37.5542L39.6504 35.3765L41.7422 30.1602H42.5684L39.9668 36.5586H39.3252L36.7324 30.1602ZM36.4644 30.1602H37.1895L37.3081 34.0625V36.5586H36.4644V30.1602ZM42.1069 30.1602H42.832V36.5586H41.9883V34.0625L42.1069 30.1602ZM47.2879 35.46V31.8037H48.1053V36.5586H47.3275L47.2879 35.46ZM47.4417 34.458L47.7801 34.4492C47.7801 34.7656 47.7464 35.0586 47.679 35.3281C47.6146 35.5947 47.5091 35.8262 47.3626 36.0225C47.2161 36.2188 47.0242 36.3726 46.7869 36.4839C46.5496 36.5923 46.2611 36.6465 45.9212 36.6465C45.6898 36.6465 45.4774 36.6128 45.284 36.5454C45.0936 36.478 44.9295 36.374 44.7918 36.2334C44.6541 36.0928 44.5472 35.9097 44.471 35.6841C44.3978 35.4585 44.3612 35.1875 44.3612 34.8711V31.8037H45.1741V34.8799C45.1741 35.0938 45.1976 35.271 45.2445 35.4116C45.2943 35.5493 45.3602 35.6592 45.4422 35.7412C45.5272 35.8203 45.6209 35.876 45.7235 35.9082C45.8289 35.9404 45.9373 35.9565 46.0487 35.9565C46.3944 35.9565 46.6683 35.8906 46.8704 35.7588C47.0726 35.624 47.2176 35.4438 47.3055 35.2183C47.3963 34.9897 47.4417 34.7363 47.4417 34.458ZM50.4079 29.8086V36.5586H49.5905V29.8086H50.4079ZM53.8837 31.8037V32.4277H51.3129V31.8037H53.8837ZM52.1831 30.6479H52.9961V35.3809C52.9961 35.542 53.021 35.6636 53.0708 35.7456C53.1206 35.8276 53.185 35.8818 53.2641 35.9082C53.3432 35.9346 53.4282 35.9478 53.519 35.9478C53.5864 35.9478 53.6567 35.9419 53.7299 35.9302C53.8061 35.9155 53.8632 35.9038 53.9013 35.895L53.9057 36.5586C53.8413 36.5791 53.7563 36.5981 53.6508 36.6157C53.5483 36.6362 53.4238 36.6465 53.2773 36.6465C53.0781 36.6465 52.895 36.6069 52.728 36.5278C52.561 36.4487 52.4277 36.3169 52.3281 36.1323C52.2314 35.9448 52.1831 35.6929 52.1831 35.3765V30.6479ZM55.9007 31.8037V36.5586H55.0833V31.8037H55.9007ZM55.0218 30.5425C55.0218 30.4106 55.0613 30.2993 55.1404 30.2085C55.2224 30.1177 55.3426 30.0723 55.5008 30.0723C55.656 30.0723 55.7747 30.1177 55.8567 30.2085C55.9417 30.2993 55.9842 30.4106 55.9842 30.5425C55.9842 30.6685 55.9417 30.7769 55.8567 30.8677C55.7747 30.9556 55.656 30.9995 55.5008 30.9995C55.3426 30.9995 55.2224 30.9556 55.1404 30.8677C55.0613 30.7769 55.0218 30.6685 55.0218 30.5425ZM58.1988 32.7178V38.3867H57.3814V31.8037H58.1285L58.1988 32.7178ZM61.4024 34.1416V34.2339C61.4024 34.5796 61.3614 34.9004 61.2794 35.1963C61.1974 35.4893 61.0772 35.7441 60.919 35.9609C60.7638 36.1777 60.5719 36.3462 60.3434 36.4663C60.1148 36.5864 59.8526 36.6465 59.5567 36.6465C59.255 36.6465 58.9884 36.5967 58.7569 36.4971C58.5255 36.3975 58.3292 36.2524 58.1681 36.062C58.0069 35.8716 57.878 35.6431 57.7813 35.3765C57.6876 35.1099 57.6231 34.8096 57.588 34.4756V33.9834C57.6231 33.6318 57.6891 33.3169 57.7857 33.0386C57.8824 32.7603 58.0099 32.5229 58.1681 32.3267C58.3292 32.1274 58.524 31.9766 58.7525 31.874C58.9811 31.7686 59.2447 31.7158 59.5436 31.7158C59.8424 31.7158 60.1075 31.7744 60.339 31.8916C60.5704 32.0059 60.7652 32.1699 60.9234 32.3838C61.0816 32.5977 61.2003 32.854 61.2794 33.1528C61.3614 33.4487 61.4024 33.7783 61.4024 34.1416ZM60.5851 34.2339V34.1416C60.5851 33.9043 60.5602 33.6816 60.5104 33.4736C60.4605 33.2627 60.3829 33.0781 60.2774 32.9199C60.1749 32.7588 60.0431 32.6328 59.8819 32.542C59.7208 32.4482 59.5289 32.4014 59.3062 32.4014C59.1012 32.4014 58.9225 32.4365 58.7701 32.5068C58.6207 32.5771 58.4933 32.6724 58.3878 32.7925C58.2823 32.9097 58.1959 33.0444 58.1285 33.1968C58.0641 33.3462 58.0157 33.5015 57.9835 33.6626V34.8008C58.0421 35.0059 58.1241 35.1992 58.2296 35.3809C58.3351 35.5596 58.4757 35.7046 58.6515 35.8159C58.8272 35.9243 59.0484 35.9785 59.315 35.9785C59.5348 35.9785 59.7237 35.9331 59.8819 35.8423C60.0431 35.7485 60.1749 35.6211 60.2774 35.46C60.3829 35.2988 60.4605 35.1143 60.5104 34.9062C60.5602 34.6953 60.5851 34.4712 60.5851 34.2339ZM65.5287 35.46V31.8037H66.3461V36.5586H65.5683L65.5287 35.46ZM65.6825 34.458L66.0209 34.4492C66.0209 34.7656 65.9872 35.0586 65.9198 35.3281C65.8554 35.5947 65.7499 35.8262 65.6034 36.0225C65.457 36.2188 65.2651 36.3726 65.0278 36.4839C64.7904 36.5923 64.5019 36.6465 64.162 36.6465C63.9306 36.6465 63.7182 36.6128 63.5248 36.5454C63.3344 36.478 63.1703 36.374 63.0326 36.2334C62.8949 36.0928 62.788 35.9097 62.7118 35.6841C62.6386 35.4585 62.602 35.1875 62.602 34.8711V31.8037H63.415V34.8799C63.415 35.0938 63.4384 35.271 63.4853 35.4116C63.5351 35.5493 63.601 35.6592 63.683 35.7412C63.768 35.8203 63.8617 35.876 63.9643 35.9082C64.0697 35.9404 64.1781 35.9565 64.2895 35.9565C64.6352 35.9565 64.9091 35.8906 65.1112 35.7588C65.3134 35.624 65.4584 35.4438 65.5463 35.2183C65.6371 34.9897 65.6825 34.7363 65.6825 34.458ZM68.5784 32.5508V36.5586H67.7654V31.8037H68.5564L68.5784 32.5508ZM70.0637 31.7773L70.0593 32.5332C69.9919 32.5186 69.9275 32.5098 69.866 32.5068C69.8074 32.501 69.74 32.498 69.6638 32.498C69.4763 32.498 69.3108 32.5273 69.1672 32.5859C69.0237 32.6445 68.9021 32.7266 68.8025 32.832C68.7029 32.9375 68.6238 33.0635 68.5652 33.21C68.5095 33.3535 68.4729 33.5117 68.4553 33.6846L68.2268 33.8164C68.2268 33.5293 68.2546 33.2598 68.3103 33.0078C68.3689 32.7559 68.4582 32.5332 68.5784 32.3398C68.6985 32.1436 68.8508 31.9912 69.0354 31.8828C69.2229 31.7715 69.4455 31.7158 69.7034 31.7158C69.762 31.7158 69.8293 31.7231 69.9055 31.7378C69.9817 31.7495 70.0344 31.7627 70.0637 31.7773ZM71.8082 32.7178V38.3867H70.9908V31.8037H71.7379L71.8082 32.7178ZM75.0118 34.1416V34.2339C75.0118 34.5796 74.9708 34.9004 74.8887 35.1963C74.8067 35.4893 74.6866 35.7441 74.5284 35.9609C74.3731 36.1777 74.1812 36.3462 73.9527 36.4663C73.7242 36.5864 73.462 36.6465 73.1661 36.6465C72.8643 36.6465 72.5977 36.5967 72.3663 36.4971C72.1348 36.3975 71.9385 36.2524 71.7774 36.062C71.6163 35.8716 71.4874 35.6431 71.3907 35.3765C71.2969 35.1099 71.2325 34.8096 71.1973 34.4756V33.9834C71.2325 33.6318 71.2984 33.3169 71.3951 33.0386C71.4918 32.7603 71.6192 32.5229 71.7774 32.3267C71.9385 32.1274 72.1334 31.9766 72.3619 31.874C72.5904 31.7686 72.8541 31.7158 73.1529 31.7158C73.4517 31.7158 73.7169 31.7744 73.9483 31.8916C74.1797 32.0059 74.3746 32.1699 74.5328 32.3838C74.691 32.5977 74.8096 32.854 74.8887 33.1528C74.9708 33.4487 75.0118 33.7783 75.0118 34.1416ZM74.1944 34.2339V34.1416C74.1944 33.9043 74.1695 33.6816 74.1197 33.4736C74.0699 33.2627 73.9922 33.0781 73.8868 32.9199C73.7842 32.7588 73.6524 32.6328 73.4913 32.542C73.3301 32.4482 73.1382 32.4014 72.9156 32.4014C72.7105 32.4014 72.5318 32.4365 72.3795 32.5068C72.23 32.5771 72.1026 32.6724 71.9971 32.7925C71.8917 32.9097 71.8052 33.0444 71.7379 33.1968C71.6734 33.3462 71.6251 33.5015 71.5928 33.6626V34.8008C71.6514 35.0059 71.7335 35.1992 71.8389 35.3809C71.9444 35.5596 72.085 35.7046 72.2608 35.8159C72.4366 35.9243 72.6578 35.9785 72.9244 35.9785C73.1441 35.9785 73.3331 35.9331 73.4913 35.8423C73.6524 35.7485 73.7842 35.6211 73.8868 35.46C73.9922 35.2988 74.0699 35.1143 74.1197 34.9062C74.1695 34.6953 74.1944 34.4712 74.1944 34.2339ZM76.0136 34.2339V34.1328C76.0136 33.79 76.0634 33.4722 76.163 33.1792C76.2626 32.8833 76.4061 32.627 76.5936 32.4102C76.7811 32.1904 77.0082 32.0205 77.2748 31.9004C77.5414 31.7773 77.8402 31.7158 78.1713 31.7158C78.5053 31.7158 78.8055 31.7773 79.0721 31.9004C79.3417 32.0205 79.5702 32.1904 79.7577 32.4102C79.9481 32.627 80.0931 32.8833 80.1928 33.1792C80.2924 33.4722 80.3422 33.79 80.3422 34.1328V34.2339C80.3422 34.5767 80.2924 34.8945 80.1928 35.1875C80.0931 35.4805 79.9481 35.7368 79.7577 35.9565C79.5702 36.1733 79.3431 36.3433 79.0765 36.4663C78.8129 36.5864 78.514 36.6465 78.1801 36.6465C77.8461 36.6465 77.5458 36.5864 77.2792 36.4663C77.0126 36.3433 76.7841 36.1733 76.5936 35.9565C76.4061 35.7368 76.2626 35.4805 76.163 35.1875C76.0634 34.8945 76.0136 34.5767 76.0136 34.2339ZM76.8265 34.1328V34.2339C76.8265 34.4712 76.8544 34.6953 76.91 34.9062C76.9657 35.1143 77.0492 35.2988 77.1605 35.46C77.2748 35.6211 77.4169 35.7485 77.5868 35.8423C77.7567 35.9331 77.9545 35.9785 78.1801 35.9785C78.4027 35.9785 78.5975 35.9331 78.7645 35.8423C78.9345 35.7485 79.0751 35.6211 79.1864 35.46C79.2977 35.2988 79.3812 35.1143 79.4369 34.9062C79.4955 34.6953 79.5248 34.4712 79.5248 34.2339V34.1328C79.5248 33.8984 79.4955 33.6772 79.4369 33.4692C79.3812 33.2583 79.2963 33.0723 79.182 32.9111C79.0707 32.7471 78.9301 32.6182 78.7601 32.5244C78.5931 32.4307 78.3969 32.3838 78.1713 32.3838C77.9486 32.3838 77.7523 32.4307 77.5824 32.5244C77.4154 32.6182 77.2748 32.7471 77.1605 32.9111C77.0492 33.0723 76.9657 33.2583 76.91 33.4692C76.8544 33.6772 76.8265 33.8984 76.8265 34.1328ZM84.3103 35.2974C84.3103 35.1802 84.2839 35.0718 84.2312 34.9722C84.1813 34.8696 84.0773 34.7773 83.9191 34.6953C83.7639 34.6104 83.5295 34.5371 83.216 34.4756C82.9523 34.4199 82.7136 34.354 82.4997 34.2778C82.2888 34.2017 82.1086 34.1094 81.9592 34.001C81.8127 33.8926 81.6999 33.7651 81.6208 33.6187C81.5417 33.4722 81.5021 33.3008 81.5021 33.1045C81.5021 32.917 81.5432 32.7397 81.6252 32.5728C81.7102 32.4058 81.8288 32.2578 81.9812 32.1289C82.1364 32 82.3225 31.8989 82.5393 31.8257C82.7561 31.7524 82.9978 31.7158 83.2644 31.7158C83.6452 31.7158 83.9704 31.7832 84.2399 31.918C84.5095 32.0527 84.716 32.2329 84.8596 32.4585C85.0031 32.6812 85.0749 32.9287 85.0749 33.2012H84.2619C84.2619 33.0693 84.2224 32.9419 84.1433 32.8188C84.0671 32.6929 83.9543 32.5889 83.8049 32.5068C83.6584 32.4248 83.4782 32.3838 83.2644 32.3838C83.0388 32.3838 82.8557 32.4189 82.715 32.4893C82.5773 32.5566 82.4763 32.6431 82.4118 32.7485C82.3503 32.854 82.3195 32.9653 82.3195 33.0825C82.3195 33.1704 82.3342 33.2495 82.3635 33.3198C82.3957 33.3872 82.4514 33.4502 82.5305 33.5088C82.6096 33.5645 82.7209 33.6172 82.8645 33.667C83.008 33.7168 83.1911 33.7666 83.4138 33.8164C83.8034 33.9043 84.1242 34.0098 84.3762 34.1328C84.6281 34.2559 84.8156 34.4067 84.9387 34.5854C85.0617 34.7642 85.1232 34.981 85.1232 35.2358C85.1232 35.4438 85.0793 35.6343 84.9914 35.8071C84.9064 35.98 84.7819 36.1294 84.6179 36.2554C84.4567 36.3784 84.2634 36.4751 84.0378 36.5454C83.8151 36.6128 83.5646 36.6465 83.2863 36.6465C82.8674 36.6465 82.5129 36.5718 82.2229 36.4224C81.9328 36.2729 81.7131 36.0796 81.5637 35.8423C81.4143 35.605 81.3396 35.3545 81.3396 35.0908H82.1569C82.1687 35.3135 82.2331 35.4907 82.3503 35.6226C82.4675 35.7515 82.611 35.8438 82.781 35.8994C82.9509 35.9521 83.1193 35.9785 83.2863 35.9785C83.509 35.9785 83.695 35.9492 83.8444 35.8906C83.9968 35.832 84.1125 35.7515 84.1916 35.6489C84.2707 35.5464 84.3103 35.4292 84.3103 35.2974ZM88.3443 36.6465C88.0132 36.6465 87.7129 36.5908 87.4434 36.4795C87.1768 36.3652 86.9468 36.2056 86.7534 36.0005C86.563 35.7954 86.4165 35.5522 86.314 35.271C86.2114 34.9897 86.1602 34.6821 86.1602 34.3481V34.1636C86.1602 33.7769 86.2173 33.4326 86.3316 33.1309C86.4458 32.8262 86.6011 32.5684 86.7974 32.3574C86.9937 32.1465 87.2163 31.9868 87.4654 31.8784C87.7144 31.77 87.9722 31.7158 88.2388 31.7158C88.5786 31.7158 88.8716 31.7744 89.1177 31.8916C89.3667 32.0088 89.5703 32.1729 89.7285 32.3838C89.8867 32.5918 90.0039 32.8379 90.0801 33.1221C90.1563 33.4033 90.1944 33.7109 90.1944 34.0449V34.4097H86.6436V33.7461H89.3814V33.6846C89.3696 33.4736 89.3257 33.2686 89.2495 33.0693C89.1763 32.8701 89.0591 32.7061 88.898 32.5771C88.7368 32.4482 88.5171 32.3838 88.2388 32.3838C88.0542 32.3838 87.8843 32.4233 87.729 32.5024C87.5737 32.5786 87.4404 32.6929 87.3291 32.8452C87.2178 32.9976 87.1314 33.1836 87.0698 33.4033C87.0083 33.623 86.9776 33.8765 86.9776 34.1636V34.3481C86.9776 34.5737 87.0083 34.7861 87.0698 34.9854C87.1343 35.1816 87.2266 35.3545 87.3467 35.5039C87.4697 35.6533 87.6177 35.7705 87.7905 35.8555C87.9663 35.9404 88.1655 35.9829 88.3882 35.9829C88.6753 35.9829 88.9185 35.9243 89.1177 35.8071C89.3169 35.6899 89.4912 35.5332 89.6406 35.3369L90.1328 35.728C90.0303 35.8833 89.8999 36.0312 89.7417 36.1719C89.5835 36.3125 89.3887 36.4268 89.1572 36.5146C88.9287 36.6025 88.6577 36.6465 88.3443 36.6465ZM96.0475 30.1602V36.5586H95.2126V30.1602H96.0475ZM98.1042 30.1602V30.8545H93.1603V30.1602H98.1042ZM100.644 36.6465C100.313 36.6465 100.013 36.5908 99.7431 36.4795C99.4765 36.3652 99.2466 36.2056 99.0532 36.0005C98.8628 35.7954 98.7163 35.5522 98.6138 35.271C98.5112 34.9897 98.4599 34.6821 98.4599 34.3481V34.1636C98.4599 33.7769 98.5171 33.4326 98.6313 33.1309C98.7456 32.8262 98.9009 32.5684 99.0971 32.3574C99.2934 32.1465 99.5161 31.9868 99.7651 31.8784C100.014 31.77 100.272 31.7158 100.539 31.7158C100.878 31.7158 101.171 31.7744 101.417 31.8916C101.666 32.0088 101.87 32.1729 102.028 32.3838C102.187 32.5918 102.304 32.8379 102.38 33.1221C102.456 33.4033 102.494 33.7109 102.494 34.0449V34.4097H98.9433V33.7461H101.681V33.6846C101.669 33.4736 101.625 33.2686 101.549 33.0693C101.476 32.8701 101.359 32.7061 101.198 32.5771C101.037 32.4482 100.817 32.3838 100.539 32.3838C100.354 32.3838 100.184 32.4233 100.029 32.5024C99.8735 32.5786 99.7402 32.6929 99.6289 32.8452C99.5176 32.9976 99.4311 33.1836 99.3696 33.4033C99.3081 33.623 99.2773 33.8765 99.2773 34.1636V34.3481C99.2773 34.5737 99.3081 34.7861 99.3696 34.9854C99.4341 35.1816 99.5263 35.3545 99.6465 35.5039C99.7695 35.6533 99.9175 35.7705 100.09 35.8555C100.266 35.9404 100.465 35.9829 100.688 35.9829C100.975 35.9829 101.218 35.9243 101.417 35.8071C101.617 35.6899 101.791 35.5332 101.94 35.3369L102.433 35.728C102.33 35.8833 102.2 36.0312 102.041 36.1719C101.883 36.3125 101.688 36.4268 101.457 36.5146C101.228 36.6025 100.958 36.6465 100.644 36.6465ZM104.432 32.7485V36.5586H103.615V31.8037H104.388L104.432 32.7485ZM104.265 34.001L103.887 33.9878C103.89 33.6626 103.932 33.3623 104.014 33.0869C104.096 32.8086 104.218 32.5669 104.379 32.3618C104.54 32.1567 104.741 31.9985 104.981 31.8872C105.221 31.7729 105.5 31.7158 105.816 31.7158C106.039 31.7158 106.244 31.748 106.431 31.8125C106.619 31.874 106.782 31.9722 106.919 32.1069C107.057 32.2417 107.164 32.4146 107.24 32.6255C107.316 32.8364 107.354 33.0913 107.354 33.3901V36.5586H106.541V33.4297C106.541 33.1807 106.499 32.9814 106.414 32.832C106.332 32.6826 106.215 32.5742 106.062 32.5068C105.91 32.4365 105.731 32.4014 105.526 32.4014C105.286 32.4014 105.085 32.4438 104.924 32.5288C104.763 32.6138 104.634 32.731 104.537 32.8804C104.441 33.0298 104.37 33.2012 104.326 33.3945C104.285 33.585 104.265 33.7871 104.265 34.001ZM107.346 33.5527L106.801 33.7197C106.804 33.459 106.846 33.2085 106.928 32.9683C107.013 32.728 107.135 32.5142 107.293 32.3267C107.454 32.1392 107.652 31.9912 107.886 31.8828C108.12 31.7715 108.388 31.7158 108.69 31.7158C108.945 31.7158 109.171 31.7495 109.367 31.8169C109.566 31.8843 109.733 31.9883 109.868 32.1289C110.006 32.2666 110.11 32.4438 110.18 32.6606C110.25 32.8774 110.285 33.1353 110.285 33.4341V36.5586H109.468V33.4253C109.468 33.1587 109.426 32.9521 109.341 32.8057C109.259 32.6562 109.141 32.5522 108.989 32.4937C108.84 32.4321 108.661 32.4014 108.453 32.4014C108.274 32.4014 108.116 32.4321 107.978 32.4937C107.841 32.5552 107.725 32.6401 107.631 32.7485C107.537 32.854 107.466 32.9756 107.416 33.1133C107.369 33.251 107.346 33.3975 107.346 33.5527ZM112.509 32.7178V38.3867H111.692V31.8037H112.439L112.509 32.7178ZM115.713 34.1416V34.2339C115.713 34.5796 115.672 34.9004 115.589 35.1963C115.507 35.4893 115.387 35.7441 115.229 35.9609C115.074 36.1777 114.882 36.3462 114.653 36.4663C114.425 36.5864 114.163 36.6465 113.867 36.6465C113.565 36.6465 113.298 36.5967 113.067 36.4971C112.836 36.3975 112.639 36.2524 112.478 36.062C112.317 35.8716 112.188 35.6431 112.091 35.3765C111.998 35.1099 111.933 34.8096 111.898 34.4756V33.9834C111.933 33.6318 111.999 33.3169 112.096 33.0386C112.192 32.7603 112.32 32.5229 112.478 32.3267C112.639 32.1274 112.834 31.9766 113.063 31.874C113.291 31.7686 113.555 31.7158 113.854 31.7158C114.152 31.7158 114.418 31.7744 114.649 31.8916C114.88 32.0059 115.075 32.1699 115.234 32.3838C115.392 32.5977 115.51 32.854 115.589 33.1528C115.672 33.4487 115.713 33.7783 115.713 34.1416ZM114.895 34.2339V34.1416C114.895 33.9043 114.87 33.6816 114.82 33.4736C114.771 33.2627 114.693 33.0781 114.588 32.9199C114.485 32.7588 114.353 32.6328 114.192 32.542C114.031 32.4482 113.839 32.4014 113.616 32.4014C113.411 32.4014 113.233 32.4365 113.08 32.5068C112.931 32.5771 112.803 32.6724 112.698 32.7925C112.592 32.9097 112.506 33.0444 112.439 33.1968C112.374 33.3462 112.326 33.5015 112.294 33.6626V34.8008C112.352 35.0059 112.434 35.1992 112.54 35.3809C112.645 35.5596 112.786 35.7046 112.962 35.8159C113.137 35.9243 113.359 35.9785 113.625 35.9785C113.845 35.9785 114.034 35.9331 114.192 35.8423C114.353 35.7485 114.485 35.6211 114.588 35.46C114.693 35.2988 114.771 35.1143 114.82 34.9062C114.87 34.6953 114.895 34.4712 114.895 34.2339ZM117.813 29.8086V36.5586H116.996V29.8086H117.813ZM122.102 35.7456V33.2979C122.102 33.1104 122.064 32.9478 121.988 32.8101C121.914 32.6694 121.803 32.561 121.654 32.4849C121.504 32.4087 121.32 32.3706 121.1 32.3706C120.895 32.3706 120.715 32.4058 120.559 32.4761C120.407 32.5464 120.287 32.6387 120.199 32.7529C120.114 32.8672 120.072 32.9902 120.072 33.1221H119.259C119.259 32.9521 119.302 32.7837 119.39 32.6167C119.478 32.4497 119.604 32.2988 119.768 32.1641C119.935 32.0264 120.135 31.918 120.366 31.8389C120.6 31.7568 120.861 31.7158 121.148 31.7158C121.494 31.7158 121.799 31.7744 122.062 31.8916C122.329 32.0088 122.537 32.186 122.686 32.4233C122.839 32.6577 122.915 32.9521 122.915 33.3066V35.5215C122.915 35.6797 122.928 35.8481 122.954 36.0269C122.984 36.2056 123.026 36.3594 123.082 36.4883V36.5586H122.234C122.193 36.4648 122.16 36.3403 122.137 36.1851C122.114 36.0269 122.102 35.8804 122.102 35.7456ZM122.242 33.6758L122.251 34.2471H121.429C121.198 34.2471 120.991 34.2661 120.81 34.3042C120.628 34.3394 120.476 34.3936 120.353 34.4668C120.23 34.54 120.136 34.6323 120.072 34.7437C120.007 34.8521 119.975 34.9795 119.975 35.126C119.975 35.2754 120.009 35.4116 120.076 35.5347C120.143 35.6577 120.244 35.7559 120.379 35.8291C120.517 35.8994 120.685 35.9346 120.885 35.9346C121.134 35.9346 121.353 35.8818 121.544 35.7764C121.734 35.6709 121.885 35.542 121.996 35.3896C122.111 35.2373 122.172 35.0894 122.181 34.9458L122.528 35.3369C122.508 35.46 122.452 35.5962 122.361 35.7456C122.27 35.895 122.149 36.0386 121.996 36.1763C121.847 36.311 121.668 36.4238 121.46 36.5146C121.255 36.6025 121.024 36.6465 120.766 36.6465C120.444 36.6465 120.161 36.5835 119.918 36.4575C119.677 36.3315 119.49 36.1631 119.355 35.9521C119.223 35.7383 119.157 35.4995 119.157 35.2358C119.157 34.981 119.207 34.7568 119.307 34.5635C119.407 34.3672 119.55 34.2046 119.738 34.0757C119.925 33.9438 120.151 33.8442 120.414 33.7769C120.678 33.7095 120.972 33.6758 121.298 33.6758H122.242ZM126.364 31.8037V32.4277H123.794V31.8037H126.364ZM124.664 30.6479H125.477V35.3809C125.477 35.542 125.502 35.6636 125.551 35.7456C125.601 35.8276 125.666 35.8818 125.745 35.9082C125.824 35.9346 125.909 35.9478 126 35.9478C126.067 35.9478 126.137 35.9419 126.211 35.9302C126.287 35.9155 126.344 35.9038 126.382 35.895L126.386 36.5586C126.322 36.5791 126.237 36.5981 126.131 36.6157C126.029 36.6362 125.904 36.6465 125.758 36.6465C125.559 36.6465 125.376 36.6069 125.209 36.5278C125.042 36.4487 124.908 36.3169 124.809 36.1323C124.712 35.9448 124.664 35.6929 124.664 35.3765V30.6479ZM129.471 36.6465C129.14 36.6465 128.84 36.5908 128.57 36.4795C128.304 36.3652 128.074 36.2056 127.88 36.0005C127.69 35.7954 127.543 35.5522 127.441 35.271C127.338 34.9897 127.287 34.6821 127.287 34.3481V34.1636C127.287 33.7769 127.344 33.4326 127.458 33.1309C127.573 32.8262 127.728 32.5684 127.924 32.3574C128.121 32.1465 128.343 31.9868 128.592 31.8784C128.841 31.77 129.099 31.7158 129.366 31.7158C129.705 31.7158 129.998 31.7744 130.245 31.8916C130.494 32.0088 130.697 32.1729 130.855 32.3838C131.014 32.5918 131.131 32.8379 131.207 33.1221C131.283 33.4033 131.321 33.7109 131.321 34.0449V34.4097H127.77V33.7461H130.508V33.6846C130.496 33.4736 130.453 33.2686 130.376 33.0693C130.303 32.8701 130.186 32.7061 130.025 32.5771C129.864 32.4482 129.644 32.3838 129.366 32.3838C129.181 32.3838 129.011 32.4233 128.856 32.5024C128.701 32.5786 128.567 32.6929 128.456 32.8452C128.345 32.9976 128.258 33.1836 128.197 33.4033C128.135 33.623 128.104 33.8765 128.104 34.1636V34.3481C128.104 34.5737 128.135 34.7861 128.197 34.9854C128.261 35.1816 128.353 35.3545 128.474 35.5039C128.597 35.6533 128.745 35.7705 128.917 35.8555C129.093 35.9404 129.292 35.9829 129.515 35.9829C129.802 35.9829 130.045 35.9243 130.245 35.8071C130.444 35.6899 130.618 35.5332 130.767 35.3369L131.26 35.728C131.157 35.8833 131.027 36.0312 130.869 36.1719C130.71 36.3125 130.516 36.4268 130.284 36.5146C130.056 36.6025 129.785 36.6465 129.471 36.6465Z" fill="#001659"/>
<path d="M47.1039 15.0598C49.623 14.8254 50.6477 13.3318 50.6477 10.4347C50.6477 6.27525 48.773 5.16282 43.5011 5.16282C40.1032 5.16282 38.1997 5.19232 35.915 5.39727V25.6076C38.4668 25.8125 40.5721 25.842 44.4381 25.842C49.2706 25.842 51.2921 24.7256 51.2921 20.5702C51.2921 17.3485 50.2083 15.4442 47.1039 15.1811V15.0598ZM46.3719 11.0471C46.3719 13.1268 45.698 13.654 43.5306 13.654H40.2794V8.52801H43.2961C45.639 8.52881 46.3719 8.99691 46.3719 11.0471ZM40.2794 22.4704V16.6125H43.5601C46.0792 16.642 46.8113 17.2568 46.8113 19.7169C46.8113 21.972 46.1079 22.4704 43.6773 22.4704H40.2794ZM70.5941 5.39168H66.1125V17.5471C66.1125 21.2671 65.2042 22.3795 62.5097 22.3795C59.7561 22.3795 58.8773 21.2631 58.8773 17.5471V5.39168H54.426V17.5471C54.426 23.7272 56.623 25.9824 62.7154 25.9824C68.4857 25.9824 70.5941 23.7272 70.5941 17.5471V5.39168ZM81.082 5.0137C75.8684 5.0137 73.7304 5.9802 73.7304 10.6077C73.7304 13.5949 74.8468 15.4115 77.9186 16.5239L81.9895 17.9593C83.3372 18.3987 83.893 18.7504 83.893 20.185C83.893 21.8253 83.2487 22.1475 80.9058 22.1475C79.6171 22.1475 77.9768 22.0893 74.228 22.0008L73.9641 25.2224C76.2434 25.7196 78.5689 25.9749 80.9018 25.984C86.4081 25.984 88.3977 24.7535 88.3977 20.1555C88.3977 17.197 87.3435 15.3517 84.1211 14.2098L80.2838 12.8916C78.7607 12.394 78.1746 12.0144 78.1746 10.6069C78.1746 8.87889 78.9361 8.76166 81.1036 8.76166C83.2415 8.76166 85.7287 8.79117 87.4304 8.84938L87.7231 5.80316C85.5556 5.23928 83.3213 4.97367 81.082 5.0137ZM96.0181 25.6044V5.39168H91.566V25.602L96.0181 25.6044ZM107.939 5.0432C101.701 5.0432 99.4447 7.79676 99.4447 15.5C99.4447 23.2033 101.7 25.9569 107.939 25.9569C110.127 26.0418 112.314 25.7648 114.412 25.1371L114.031 21.8277C112.009 22.0538 109.973 22.142 107.939 22.0917C105.01 22.0917 104.131 20.5981 104.131 15.5016C104.131 10.4052 105.008 8.91158 107.939 8.91158C110.491 8.91158 111.717 8.94109 113.622 9.05831L114.002 5.71943C112.024 5.20525 109.982 4.97752 107.939 5.0432ZM124.956 5.0137C118.571 5.0137 116.316 7.38608 116.316 15.4992C116.316 23.6124 118.571 25.9848 124.956 25.9848C131.341 25.9848 133.626 23.6124 133.626 15.4992C133.626 7.38608 131.341 5.0137 124.956 5.0137ZM124.956 8.61653C128.003 8.61653 128.911 10.1396 128.911 15.5C128.911 20.8604 128.003 22.3835 124.956 22.3835C121.91 22.3835 121.002 20.8604 121.002 15.5C121.002 10.1396 121.911 8.61653 124.956 8.61653Z" fill="#001659"/>
</svg>
