<svg width="21" height="14" viewBox="0 0 21 14" fill="none" xmlns="http://www.w3.org/2000/svg">
<path d="M19.9258 1.61805C19.8243 1.3737 19.6301 1.17952 19.3858 1.07805C19.2656 1.02681 19.1365 0.999627 19.0058 0.998047H14.0058C13.7406 0.998047 13.4862 1.1034 13.2987 1.29094C13.1112 1.47848 13.0058 1.73283 13.0058 1.99805C13.0058 2.26326 13.1112 2.51762 13.2987 2.70515C13.4862 2.89269 13.7406 2.99805 14.0058 2.99805H16.5958L11.0058 8.58805L7.7158 5.28805C7.62284 5.19432 7.51223 5.11992 7.39038 5.06916C7.26852 5.01839 7.13781 4.99225 7.0058 4.99225C6.87379 4.99225 6.74308 5.01839 6.62122 5.06916C6.49936 5.11992 6.38876 5.19432 6.2958 5.28805L0.295798 11.288C0.20207 11.381 0.127676 11.4916 0.0769069 11.6135C0.0261382 11.7353 0 11.866 0 11.998C0 12.1301 0.0261382 12.2608 0.0769069 12.3826C0.127676 12.5045 0.20207 12.6151 0.295798 12.708C0.388761 12.8018 0.499363 12.8762 0.621222 12.9269C0.743081 12.9777 0.873786 13.0038 1.0058 13.0038C1.13781 13.0038 1.26852 12.9777 1.39037 12.9269C1.51223 12.8762 1.62284 12.8018 1.7158 12.708L7.0058 7.40805L10.2958 10.708C10.3888 10.8018 10.4994 10.8762 10.6212 10.9269C10.7431 10.9777 10.8738 11.0038 11.0058 11.0038C11.1378 11.0038 11.2685 10.9777 11.3904 10.9269C11.5122 10.8762 11.6228 10.8018 11.7158 10.708L18.0058 4.40805V6.99805C18.0058 7.26326 18.1112 7.51762 18.2987 7.70515C18.4862 7.89269 18.7406 7.99805 19.0058 7.99805C19.271 7.99805 19.5254 7.89269 19.7129 7.70515C19.9004 7.51762 20.0058 7.26326 20.0058 6.99805V1.99805C20.0042 1.86737 19.977 1.73827 19.9258 1.61805Z" fill="#001659"/>
</svg>
